<mxfile host="65bd71144e">
    <diagram id="2ntPOdel0BiPXLyhoWaZ" name="Page-1">
        <mxGraphModel dx="999" dy="623" grid="1" gridSize="10" guides="1" tooltips="1" connect="1" arrows="1" fold="1" page="1" pageScale="1" pageWidth="850" pageHeight="1100" math="0" shadow="0">
            <root>
                <mxCell id="0"/>
                <mxCell id="1" parent="0"/>
                <mxCell id="2" value="Hardware, Bootloader, Linux" style="rounded=0;whiteSpace=wrap;html=1;fillColor=#f5f5f5;fontColor=#333333;strokeColor=#666666;" vertex="1" parent="1">
                    <mxGeometry x="120" y="280" width="280" height="40" as="geometry"/>
                </mxCell>
                <mxCell id="9" value="Eclipse SDV&lt;br&gt;Developer Tools, SDKs, Tutorials, Examples" style="rounded=0;whiteSpace=wrap;html=1;fillColor=#d5e8d4;strokeColor=#82b366;" vertex="1" parent="1">
                    <mxGeometry x="120" y="80" width="280" height="40" as="geometry"/>
                </mxCell>
                <mxCell id="10" value="Eclipse Leda - SDV Edge Reference Stack&lt;br&gt;&lt;br&gt;&lt;br&gt;&lt;br&gt;&lt;br&gt;&lt;br&gt;&lt;br&gt;&lt;br&gt;&lt;br&gt;" style="rounded=0;whiteSpace=wrap;html=1;fillColor=#dae8fc;strokeColor=#6c8ebf;" vertex="1" parent="1">
                    <mxGeometry x="120" y="120" width="280" height="160" as="geometry"/>
                </mxCell>
                <mxCell id="12" value="&amp;gt;&amp;gt; Your Own Vehicle Applications &amp;lt;&amp;lt;" style="rounded=0;whiteSpace=wrap;html=1;fillColor=#fff2cc;strokeColor=#d6b656;" vertex="1" parent="1">
                    <mxGeometry x="120" y="40" width="280" height="40" as="geometry"/>
                </mxCell>
                <mxCell id="15" value="Container&lt;br&gt;Runtime" style="rounded=1;whiteSpace=wrap;html=1;" vertex="1" parent="1">
                    <mxGeometry x="130" y="165" width="80" height="30" as="geometry"/>
                </mxCell>
                <mxCell id="16" value="Vehicle&lt;br&gt;Abstraction" style="rounded=1;whiteSpace=wrap;html=1;" vertex="1" parent="1">
                    <mxGeometry x="220" y="165" width="80" height="30" as="geometry"/>
                </mxCell>
                <mxCell id="17" value="Vehicle&lt;br&gt;Signals" style="rounded=1;whiteSpace=wrap;html=1;" vertex="1" parent="1">
                    <mxGeometry x="310" y="165" width="80" height="30" as="geometry"/>
                </mxCell>
                <mxCell id="18" value="Cloud Conn." style="rounded=1;whiteSpace=wrap;html=1;" vertex="1" parent="1">
                    <mxGeometry x="130" y="202" width="80" height="30" as="geometry"/>
                </mxCell>
                <mxCell id="19" value="tbd." style="rounded=1;whiteSpace=wrap;html=1;dashed=1;" vertex="1" parent="1">
                    <mxGeometry x="130" y="240" width="80" height="30" as="geometry"/>
                </mxCell>
                <mxCell id="20" value="OTA Updates" style="rounded=1;whiteSpace=wrap;html=1;" vertex="1" parent="1">
                    <mxGeometry x="220" y="202" width="80" height="30" as="geometry"/>
                </mxCell>
                <mxCell id="21" value="Vehicle&lt;br&gt;Services" style="rounded=1;whiteSpace=wrap;html=1;fillColor=#fff2cc;strokeColor=#d6b656;" vertex="1" parent="1">
                    <mxGeometry x="310" y="202" width="80" height="30" as="geometry"/>
                </mxCell>
                <mxCell id="22" value="Bus Comm." style="rounded=1;whiteSpace=wrap;html=1;" vertex="1" parent="1">
                    <mxGeometry x="220" y="240" width="80" height="30" as="geometry"/>
                </mxCell>
                <mxCell id="23" value="Middleware" style="rounded=1;whiteSpace=wrap;html=1;" vertex="1" parent="1">
                    <mxGeometry x="310" y="240" width="80" height="30" as="geometry"/>
                </mxCell>
            </root>
        </mxGraphModel>
    </diagram>
</mxfile>